<?xml version="1.0" encoding="UTF-8" standalone="no"?>
<!-- Created with Inkscape (http://www.inkscape.org/) -->

<svg
   xmlns:dc="http://purl.org/dc/elements/1.1/"
   xmlns:cc="http://creativecommons.org/ns#"
   xmlns:rdf="http://www.w3.org/1999/02/22-rdf-syntax-ns#"
   xmlns:svg="http://www.w3.org/2000/svg"
   xmlns="http://www.w3.org/2000/svg"
   xmlns:sodipodi="http://sodipodi.sourceforge.net/DTD/sodipodi-0.dtd"
   xmlns:inkscape="http://www.inkscape.org/namespaces/inkscape"
   width="301.55026"
   height="310.32523"
   id="svg4477"
   version="1.1"
   inkscape:version="0.48.1 r9760"
   sodipodi:docname="Home.svg">
  <defs
     id="defs4479">
    <filter
       inkscape:collect="always"
       id="filter5102"
       color-interpolation-filters="sRGB">
      <feGaussianBlur
         inkscape:collect="always"
         stdDeviation="17.075079"
         id="feGaussianBlur5104" />
    </filter>
  </defs>
  <sodipodi:namedview
     id="base"
     pagecolor="#ffffff"
     bordercolor="#666666"
     borderopacity="1.0"
     inkscape:pageopacity="0.0"
     inkscape:pageshadow="2"
     inkscape:zoom="0.83152777"
     inkscape:cx="48.034307"
     inkscape:cy="149.76636"
     inkscape:document-units="px"
     inkscape:current-layer="layer1"
     showgrid="false"
     fit-margin-top="0"
     fit-margin-left="0"
     fit-margin-right="0"
     fit-margin-bottom="0"
     inkscape:window-width="1230"
     inkscape:window-height="776"
     inkscape:window-x="50"
     inkscape:window-y="24"
     inkscape:window-maximized="1" />
  <metadata
     id="metadata4482">
    <rdf:RDF>
      <cc:Work
         rdf:about="">
        <dc:format>image/svg+xml</dc:format>
        <dc:type
           rdf:resource="http://purl.org/dc/dcmitype/StillImage" />
        <dc:title />
      </cc:Work>
    </rdf:RDF>
  </metadata>
  <g
     inkscape:label="Layer 1"
     inkscape:groupmode="layer"
     id="layer1"
     transform="translate(0.49848057,-17.891669)">
    <g
       id="g3035">
      <path
         transform="matrix(0.53690263,0,0,0.53690263,6.1743974,10.906656)"
         inkscape:connector-curvature="0"
         id="rect5058"
         d="m 358.83297,53.990022 -21.09375,0.09375 2.0625,65.281248 -68.625,-45.874998 1.21875,36.343748 220.0625,146.03125 15.7813,-23.84375 -146.9063,-98.21875 -2.5,-79.812498 z m -94.125,19.0625 -236.15625,159.406248 15.78125,23.8125 220.9375,-146 -0.5625,-37.218748 z m -158.34375,152.593748 -26.5625,20.25 0,261.1875 25.65625,0 0.90625,-281.4375 z m 324.0625,0 0.875,281.4375 25.6875,0 0,-261.1875 -26.5625,-20.25 z m -365.21875,286.3125 0,13.28125 406.375,0 0,-13.28125 -406.375,0 z m 126.15625,24.78125 0,13.28125 154.0625,0 0,-13.28125 -154.0625,0 z"
         style="opacity:0.83333333;fill:#000000;fill-opacity:1;stroke:none;filter:url(#filter5102)" />
      <path
         inkscape:connector-curvature="0"
         id="rect5004"
         d="m 198.82352,39.882406 -11.3125,0.0625 1.09375,35.0625 -36.84375,-24.65625 0.65625,19.53125 118.15625,78.375004 8.46875,-12.78125 -78.875,-52.750004 -1.34375,-42.84375 z m -50.53125,10.25 -126.781252,85.593754 8.46875,12.78125 118.625002,-78.406254 -0.3125,-19.96875 z m -85.031252,81.906254 -14.25,10.90625 0,140.21875 13.78125,0 0.46875,-151.125 z m 174.000002,0 0.46875,151.125 13.78125,0 0,-140.21875 -14.25,-10.90625 z m -196.093752,153.75 0,7.125 218.187502,0 0,-7.125 -218.187502,0 z m 67.750002,13.3125 0,7.125 82.71875,0 0,-7.125 -82.71875,0 z"
         style="fill:#000000;fill-opacity:1;stroke:none" />
    </g>
  </g>
</svg>
